# xmcd
#
# Track frame offsets:
#	150
#	25187
#	41050
#	57962
#	71800
#	82787
#	95762
#	108075
#	121350
#	137700
#	149700
#	168457
#	187020
#	206012
#	215475
#	228462
#	247150
#	257987
#
# Disc length: 3611
#
# Revision: 1
# Processed by: cddbd v1.5.1PL0 Copyright (c) Steve Scherf et al.
# Submitted via: ExactAudioCopy v0.90b4
# Normalized: r0:DSETVAR1,TDELIM( - )
#
DISCID=170e1912
DTITLE=Various Artist - Dream On
DYEAR=1990
DGENRE=Country
TTITLE0=Lynn Anderson and Tam White - Dream On
TTITLE1=Kenny Rogers - The Gambler
TTITLE2=Patsy Cline - Faded Love
TTITLE3=Hank Williams - Ramblin' Man
TTITLE4=Don Gibson - (I'd Be) A Legend In My Time
TTITLE5=Don Williams - The Story Of My Life
TTITLE6=Hank Williams - Lost Highway
TTITLE7=Dolly Parton - I Will Always Love You
TTITLE8=Charlie Rich - My Elusive Dreams
TTITLE9=Wanda Jackson - Right Or Wrong
TTITLE10=Kris Kristofferson - Me and Bobby McGee
TTITLE11=Steve Earle - Johnny Come Lately
TTITLE12=Lyle Lovett - Walk Through The Bottomland
TTITLE13=Jerry Lee Lewis - Before The Next Teardrop Falls
TTITLE14=Billie Jo Spears - '57 Chevrolet
TTITLE15=Waylon Jennings - A Couple More Years
TTITLE16=Leroy Van Dyke - Walk On By
TTITLE17=Tammy Wynette - He's Just An Old Love Turned Memory
EXTD=
EXTT0=
EXTT1=
EXTT2=
EXTT3=
EXTT4=
EXTT5=
EXTT6=
EXTT7=
EXTT8=
EXTT9=
EXTT10=
EXTT11=
EXTT12=
EXTT13=
EXTT14=
EXTT15=
EXTT16=
EXTT17=
PLAYORDER=
